<?xml version="1.0" encoding="UTF-8" standalone="no"?>
<!DOCTYPE svg PUBLIC "-//W3C//DTD SVG 1.1//EN"
        "http://www.w3.org/Graphics/SVG/1.1/DTD/svg11.dtd">
<!-- Generated by graphviz version 8.0.2 (20230410.1723)
 -->
<!-- Title: dependencies Pages: 1 -->
<svg width="328pt" height="188pt"
     viewBox="0.00 0.00 328.34 188.00" xmlns="http://www.w3.org/2000/svg">
    <g id="graph0" class="graph" transform="scale(1 1) rotate(0) translate(4 184)">
        <title>dependencies</title>
        <polygon fill="#0d1117" stroke="none" points="-4,4 -4,-184 324.34,-184 324.34,4 -4,4"/>
        <!-- app.login -->
        <g id="node1" class="node">
            <title>app.login</title>
            <ellipse fill="none" stroke="#c9d1d9" cx="44.2" cy="-90" rx="44.39" ry="18"/>
            <text text-anchor="middle" x="44.2" y="-86.3" font-family="Times,serif" font-size="14.00" fill="#c9d1d9">
                app.login
            </text>
        </g>
        <!-- app -->
        <g id="node2" class="node">
            <title>app</title>
            <ellipse fill="none" stroke="#c9d1d9" cx="158.2" cy="-18" rx="27" ry="18"/>
            <text text-anchor="middle" x="158.2" y="-14.3" font-family="Times,serif" font-size="14.00" fill="#c9d1d9">
                app
            </text>
        </g>
        <!-- app.login&#45;&gt;app -->
        <g id="edge1" class="edge">
            <title>app.login&#45;&gt;app</title>
            <path fill="none" stroke="#c9d1d9" d="M67.82,-74.5C85.78,-63.46 110.58,-48.24 129.65,-36.53"/>
            <polygon fill="#c9d1d9" stroke="#c9d1d9" points="131.08,-39.14 137.77,-30.93 127.42,-33.18 131.08,-39.14"/>
        </g>
        <!-- app.register -->
        <g id="node3" class="node">
            <title>app.register</title>
            <ellipse fill="none" stroke="#c9d1d9" cx="158.2" cy="-90" rx="51.99" ry="18"/>
            <text text-anchor="middle" x="158.2" y="-86.3" font-family="Times,serif" font-size="14.00" fill="#c9d1d9">
                app.register
            </text>
        </g>
        <!-- app.register&#45;&gt;app -->
        <g id="edge2" class="edge">
            <title>app.register&#45;&gt;app</title>
            <path fill="none" stroke="#c9d1d9" d="M158.2,-71.7C158.2,-64.24 158.2,-55.32 158.2,-46.97"/>
            <polygon fill="#c9d1d9" stroke="#c9d1d9" points="161.7,-47.1 158.2,-37.1 154.7,-47.1 161.7,-47.1"/>
        </g>
        <!-- app.home -->
        <g id="node4" class="node">
            <title>app.home</title>
            <ellipse fill="none" stroke="#c9d1d9" cx="274.2" cy="-90" rx="46.29" ry="18"/>
            <text text-anchor="middle" x="274.2" y="-86.3" font-family="Times,serif" font-size="14.00" fill="#c9d1d9">
                app.home
            </text>
        </g>
        <!-- app.home&#45;&gt;app -->
        <g id="edge3" class="edge">
            <title>app.home&#45;&gt;app</title>
            <path fill="none" stroke="#c9d1d9" d="M249.88,-74.33C231.58,-63.28 206.43,-48.11 187.1,-36.44"/>
            <polygon fill="#c9d1d9" stroke="#c9d1d9" points="189.23,-33.04 178.86,-30.87 185.62,-39.03 189.23,-33.04"/>
        </g>
        <!-- app.factory -->
        <g id="node5" class="node">
            <title>app.factory</title>
            <ellipse fill="none" stroke="#c9d1d9" cx="158.2" cy="-162" rx="50.89" ry="18"/>
            <text text-anchor="middle" x="158.2" y="-158.3" font-family="Times,serif" font-size="14.00" fill="#c9d1d9">
                app.factory
            </text>
        </g>
        <!-- app.factory&#45;&gt;app.login -->
        <g id="edge4" class="edge">
            <title>app.factory&#45;&gt;app.login</title>
            <path fill="none" stroke="#c9d1d9" d="M133.46,-145.81C116.84,-135.61 94.77,-122.05 76.73,-110.98"/>
            <polygon fill="#c9d1d9" stroke="#c9d1d9" points="79.07,-107.69 68.72,-105.44 75.41,-113.66 79.07,-107.69"/>
        </g>
        <!-- app.factory&#45;&gt;app.register -->
        <g id="edge5" class="edge">
            <title>app.factory&#45;&gt;app.register</title>
            <path fill="none" stroke="#c9d1d9" d="M158.2,-143.7C158.2,-136.24 158.2,-127.32 158.2,-118.97"/>
            <polygon fill="#c9d1d9" stroke="#c9d1d9" points="161.7,-119.1 158.2,-109.1 154.7,-119.1 161.7,-119.1"/>
        </g>
        <!-- app.factory&#45;&gt;app.home -->
        <g id="edge6" class="edge">
            <title>app.factory&#45;&gt;app.home</title>
            <path fill="none" stroke="#c9d1d9" d="M183.08,-145.98C199.86,-135.86 222.2,-122.38 240.56,-111.3"/>
            <polygon fill="#c9d1d9" stroke="#c9d1d9" points="242,-113.92 248.75,-105.75 238.38,-107.92 242,-113.92"/>
        </g>
    </g>
</svg>
