<?xml version="1.0" encoding="UTF-8" standalone="no"?>
<!DOCTYPE svg PUBLIC "-//W3C//DTD SVG 1.1//EN"
 "http://www.w3.org/Graphics/SVG/1.1/DTD/svg11.dtd">
<!-- Generated by graphviz version 8.0.2 (20230410.1723)
 -->
<!-- Title: dependencies Pages: 1 -->
<svg width="486pt" height="188pt"
 viewBox="0.00 0.00 485.79 188.00" xmlns="http://www.w3.org/2000/svg" xmlns:xlink="http://www.w3.org/1999/xlink">
<g id="graph0" class="graph" transform="scale(1 1) rotate(0) translate(4 184)">
<title>dependencies</title>
<polygon fill="#0d1117" stroke="none" points="-4,4 -4,-184 481.79,-184 481.79,4 -4,4"/>
<!-- app.login.Login -->
<g id="node1" class="node">
<title>app.login.Login</title>
<ellipse fill="none" stroke="#c9d1d9" cx="67.59" cy="-90" rx="67.69" ry="18"/>
<text text-anchor="middle" x="67.59" y="-86.3" font-family="Times,serif" font-size="14.00" fill="#c9d1d9">app.login.Login</text>
</g>
<!-- app.util.PageUtil -->
<g id="node2" class="node">
<title>app.util.PageUtil</title>
<ellipse fill="none" stroke="#c9d1d9" cx="155.59" cy="-18" rx="70.69" ry="18"/>
<text text-anchor="middle" x="155.59" y="-14.3" font-family="Times,serif" font-size="14.00" fill="#c9d1d9">app.util.PageUtil</text>
</g>
<!-- app.login.Login&#45;&gt;app.util.PageUtil -->
<g id="edge1" class="edge">
<title>app.login.Login&#45;&gt;app.util.PageUtil</title>
<path fill="none" stroke="#c9d1d9" d="M88.45,-72.41C99.85,-63.34 114.14,-51.97 126.61,-42.06"/>
<polygon fill="#c9d1d9" stroke="#c9d1d9" points="128.24,-44.43 133.89,-35.47 123.88,-38.96 128.24,-44.43"/>
</g>
<!-- app.contract.Page -->
<g id="node3" class="node">
<title>app.contract.Page</title>
<ellipse fill="none" stroke="#c9d1d9" cx="317.59" cy="-18" rx="73.39" ry="18"/>
<text text-anchor="middle" x="317.59" y="-14.3" font-family="Times,serif" font-size="14.00" fill="#c9d1d9">app.contract.Page</text>
</g>
<!-- app.login.Login&#45;&gt;app.contract.Page -->
<g id="edge2" class="edge">
<title>app.login.Login&#45;&gt;app.contract.Page</title>
<path fill="none" stroke="#c9d1d9" d="M113.16,-76.24C154.49,-64.67 215.61,-47.56 260.25,-35.06"/>
<polygon fill="#c9d1d9" stroke="#c9d1d9" points="260.96,-38.21 269.65,-32.15 259.07,-31.47 260.96,-38.21"/>
</g>
<!-- app.register.Register -->
<g id="node4" class="node">
<title>app.register.Register</title>
<ellipse fill="none" stroke="#c9d1d9" cx="236.59" cy="-90" rx="83.39" ry="18"/>
<text text-anchor="middle" x="236.59" y="-86.3" font-family="Times,serif" font-size="14.00" fill="#c9d1d9">app.register.Register</text>
</g>
<!-- app.register.Register&#45;&gt;app.util.PageUtil -->
<g id="edge6" class="edge">
<title>app.register.Register&#45;&gt;app.util.PageUtil</title>
<path fill="none" stroke="#c9d1d9" d="M216.99,-72.05C206.84,-63.28 194.28,-52.43 183.17,-42.83"/>
<polygon fill="#c9d1d9" stroke="#c9d1d9" points="185.88,-39.68 176.02,-35.79 181.3,-44.98 185.88,-39.68"/>
</g>
<!-- app.register.Register&#45;&gt;app.contract.Page -->
<g id="edge3" class="edge">
<title>app.register.Register&#45;&gt;app.contract.Page</title>
<path fill="none" stroke="#c9d1d9" d="M256.2,-72.05C266.35,-63.28 278.91,-52.43 290.02,-42.83"/>
<polygon fill="#c9d1d9" stroke="#c9d1d9" points="291.89,-44.98 297.17,-35.79 287.31,-39.68 291.89,-44.98"/>
</g>
<!-- app.home.Home -->
<g id="node5" class="node">
<title>app.home.Home</title>
<ellipse fill="none" stroke="#c9d1d9" cx="407.59" cy="-90" rx="70.39" ry="18"/>
<text text-anchor="middle" x="407.59" y="-86.3" font-family="Times,serif" font-size="14.00" fill="#c9d1d9">app.home.Home</text>
</g>
<!-- app.home.Home&#45;&gt;app.util.PageUtil -->
<g id="edge5" class="edge">
<title>app.home.Home&#45;&gt;app.util.PageUtil</title>
<path fill="none" stroke="#c9d1d9" d="M361.08,-76.08C319.21,-64.45 257.55,-47.32 212.71,-34.86"/>
<polygon fill="#c9d1d9" stroke="#c9d1d9" points="213.84,-31.27 203.26,-31.96 211.96,-38.01 213.84,-31.27"/>
</g>
<!-- app.home.Home&#45;&gt;app.contract.Page -->
<g id="edge4" class="edge">
<title>app.home.Home&#45;&gt;app.contract.Page</title>
<path fill="none" stroke="#c9d1d9" d="M386.27,-72.41C374.61,-63.34 359.99,-51.97 347.24,-42.06"/>
<polygon fill="#c9d1d9" stroke="#c9d1d9" points="349.81,-38.85 339.77,-35.47 345.51,-44.37 349.81,-38.85"/>
</g>
<!-- app.factory.Factory -->
<g id="node6" class="node">
<title>app.factory.Factory</title>
<ellipse fill="none" stroke="#c9d1d9" cx="236.59" cy="-162" rx="79.09" ry="18"/>
<text text-anchor="middle" x="236.59" y="-158.3" font-family="Times,serif" font-size="14.00" fill="#c9d1d9">app.factory.Factory</text>
</g>
<!-- app.factory.Factory&#45;&gt;app.login.Login -->
<g id="edge7" class="edge">
<title>app.factory.Factory&#45;&gt;app.login.Login</title>
<path fill="none" stroke="#c9d1d9" d="M199.51,-145.64C174.09,-135.11 140.21,-121.08 113.15,-109.87"/>
<polygon fill="#c9d1d9" stroke="#c9d1d9" points="114.73,-106.32 104.15,-105.73 112.05,-112.79 114.73,-106.32"/>
</g>
<!-- app.factory.Factory&#45;&gt;app.register.Register -->
<g id="edge8" class="edge">
<title>app.factory.Factory&#45;&gt;app.register.Register</title>
<path fill="none" stroke="#c9d1d9" d="M236.59,-143.7C236.59,-136.24 236.59,-127.32 236.59,-118.97"/>
<polygon fill="#c9d1d9" stroke="#c9d1d9" points="240.09,-119.1 236.59,-109.1 233.09,-119.1 240.09,-119.1"/>
</g>
<!-- app.factory.Factory&#45;&gt;app.home.Home -->
<g id="edge9" class="edge">
<title>app.factory.Factory&#45;&gt;app.home.Home</title>
<path fill="none" stroke="#c9d1d9" d="M273.7,-145.81C299.39,-135.29 333.78,-121.22 361.28,-109.96"/>
<polygon fill="#c9d1d9" stroke="#c9d1d9" points="362.51,-112.83 370.44,-105.8 359.86,-106.35 362.51,-112.83"/>
</g>
</g>
</svg>
