<?xml version="1.0" encoding="UTF-8" standalone="no"?>
<!DOCTYPE svg PUBLIC "-//W3C//DTD SVG 1.1//EN"
 "http://www.w3.org/Graphics/SVG/1.1/DTD/svg11.dtd">
<!-- Generated by graphviz version 8.0.2 (20230410.1723)
 -->
<!-- Title: dependencies Pages: 1 -->
<svg width="328pt" height="188pt"
 viewBox="0.00 0.00 328.14 188.00" xmlns="http://www.w3.org/2000/svg" xmlns:xlink="http://www.w3.org/1999/xlink">
<g id="graph0" class="graph" transform="scale(1 1) rotate(0) translate(4 184)">
<title>dependencies</title>
<polygon fill="white" stroke="none" points="-4,4 -4,-184 324.14,-184 324.14,4 -4,4"/>
<!-- app.login -->
<g id="node1" class="node">
<title>app.login</title>
<ellipse fill="none" stroke="black" cx="166" cy="-90" rx="44.39" ry="18"/>
<text text-anchor="middle" x="166" y="-86.3" font-family="Times,serif" font-size="14.00">app.login</text>
</g>
<!-- lib.util -->
<g id="node2" class="node">
<title>lib.util</title>
<ellipse fill="none" stroke="black" cx="55" cy="-18" rx="34.39" ry="18"/>
<text text-anchor="middle" x="55" y="-14.3" font-family="Times,serif" font-size="14.00">lib.util</text>
</g>
<!-- app.login&#45;&gt;lib.util -->
<g id="edge1" class="edge">
<title>app.login&#45;&gt;lib.util</title>
<path fill="none" stroke="black" d="M142.73,-74.33C126.05,-63.81 103.44,-49.55 85.35,-38.14"/>
<polygon fill="black" stroke="black" points="87.68,-34.84 77.35,-32.47 83.95,-40.76 87.68,-34.84"/>
</g>
<!-- app.util -->
<g id="node4" class="node">
<title>app.util</title>
<ellipse fill="none" stroke="black" cx="272" cy="-18" rx="37.89" ry="18"/>
<text text-anchor="middle" x="272" y="-14.3" font-family="Times,serif" font-size="14.00">app.util</text>
</g>
<!-- app.login&#45;&gt;app.util -->
<g id="edge3" class="edge">
<title>app.login&#45;&gt;app.util</title>
<path fill="none" stroke="black" d="M188.48,-74.15C203.96,-63.93 224.72,-50.22 241.67,-39.03"/>
<polygon fill="black" stroke="black" points="243.22,-41.54 249.63,-33.11 239.36,-35.7 243.22,-41.54"/>
</g>
<!-- app.contract -->
<g id="node5" class="node">
<title>app.contract</title>
<ellipse fill="none" stroke="black" cx="162" cy="-18" rx="53.89" ry="18"/>
<text text-anchor="middle" x="162" y="-14.3" font-family="Times,serif" font-size="14.00">app.contract</text>
</g>
<!-- app.login&#45;&gt;app.contract -->
<g id="edge4" class="edge">
<title>app.login&#45;&gt;app.contract</title>
<path fill="none" stroke="black" d="M165.01,-71.7C164.58,-64.24 164.07,-55.32 163.59,-46.97"/>
<polygon fill="black" stroke="black" points="167.04,-46.89 162.97,-37.1 160.05,-47.29 167.04,-46.89"/>
</g>
<!-- app.register -->
<g id="node3" class="node">
<title>app.register</title>
<ellipse fill="none" stroke="black" cx="52" cy="-90" rx="51.99" ry="18"/>
<text text-anchor="middle" x="52" y="-86.3" font-family="Times,serif" font-size="14.00">app.register</text>
</g>
<!-- app.register&#45;&gt;lib.util -->
<g id="edge2" class="edge">
<title>app.register&#45;&gt;lib.util</title>
<path fill="none" stroke="black" d="M52.74,-71.7C53.06,-64.24 53.44,-55.32 53.8,-46.97"/>
<polygon fill="black" stroke="black" points="57.33,-47.25 54.26,-37.1 50.34,-46.95 57.33,-47.25"/>
</g>
<!-- app.register&#45;&gt;app.util -->
<g id="edge8" class="edge">
<title>app.register&#45;&gt;app.util</title>
<path fill="none" stroke="black" d="M90.99,-77.66C126.17,-67.28 179.26,-51.27 225,-36 227.43,-35.19 229.92,-34.34 232.43,-33.47"/>
<polygon fill="black" stroke="black" points="233.47,-36.46 241.74,-29.84 231.15,-29.86 233.47,-36.46"/>
</g>
<!-- app.register&#45;&gt;app.contract -->
<g id="edge5" class="edge">
<title>app.register&#45;&gt;app.contract</title>
<path fill="none" stroke="black" d="M76.14,-73.64C91.61,-63.79 111.9,-50.88 128.88,-40.08"/>
<polygon fill="black" stroke="black" points="130.35,-42.65 136.91,-34.33 126.6,-36.74 130.35,-42.65"/>
</g>
<!-- app.home -->
<g id="node6" class="node">
<title>app.home</title>
<ellipse fill="none" stroke="black" cx="274" cy="-90" rx="46.29" ry="18"/>
<text text-anchor="middle" x="274" y="-86.3" font-family="Times,serif" font-size="14.00">app.home</text>
</g>
<!-- app.home&#45;&gt;app.util -->
<g id="edge7" class="edge">
<title>app.home&#45;&gt;app.util</title>
<path fill="none" stroke="black" d="M273.5,-71.7C273.29,-64.24 273.03,-55.32 272.79,-46.97"/>
<polygon fill="black" stroke="black" points="276.27,-47 272.48,-37.1 269.27,-47.2 276.27,-47"/>
</g>
<!-- app.home&#45;&gt;app.contract -->
<g id="edge6" class="edge">
<title>app.home&#45;&gt;app.contract</title>
<path fill="none" stroke="black" d="M250.24,-74.15C234.28,-64.18 213,-50.88 195.35,-39.84"/>
<polygon fill="black" stroke="black" points="197.82,-36.64 187.49,-34.31 194.11,-42.58 197.82,-36.64"/>
</g>
<!-- app.factory -->
<g id="node7" class="node">
<title>app.factory</title>
<ellipse fill="none" stroke="black" cx="166" cy="-162" rx="50.89" ry="18"/>
<text text-anchor="middle" x="166" y="-158.3" font-family="Times,serif" font-size="14.00">app.factory</text>
</g>
<!-- app.factory&#45;&gt;app.login -->
<g id="edge9" class="edge">
<title>app.factory&#45;&gt;app.login</title>
<path fill="none" stroke="black" d="M166,-143.7C166,-136.24 166,-127.32 166,-118.97"/>
<polygon fill="black" stroke="black" points="169.5,-119.1 166,-109.1 162.5,-119.1 169.5,-119.1"/>
</g>
<!-- app.factory&#45;&gt;app.register -->
<g id="edge10" class="edge">
<title>app.factory&#45;&gt;app.register</title>
<path fill="none" stroke="black" d="M141.26,-145.81C124.98,-135.81 103.45,-122.6 85.62,-111.65"/>
<polygon fill="black" stroke="black" points="88.04,-108.41 77.68,-106.16 84.37,-114.37 88.04,-108.41"/>
</g>
<!-- app.factory&#45;&gt;app.home -->
<g id="edge11" class="edge">
<title>app.factory&#45;&gt;app.home</title>
<path fill="none" stroke="black" d="M189.7,-145.64C205.1,-135.65 225.37,-122.52 242.17,-111.63"/>
<polygon fill="black" stroke="black" points="243.6,-114.22 250.09,-105.85 239.8,-108.35 243.6,-114.22"/>
</g>
</g>
</svg>
