<?xml version="1.0" encoding="UTF-8" standalone="no"?>
<!DOCTYPE svg PUBLIC "-//W3C//DTD SVG 1.1//EN"
 "http://www.w3.org/Graphics/SVG/1.1/DTD/svg11.dtd">
<!-- Generated by graphviz version 8.0.2 (20230410.1723)
 -->
<!-- Title: dependencies Pages: 1 -->
<svg width="237pt" height="188pt"
 viewBox="0.00 0.00 237.14 188.00" xmlns="http://www.w3.org/2000/svg" xmlns:xlink="http://www.w3.org/1999/xlink">
<g id="graph0" class="graph" transform="scale(1 1) rotate(0) translate(4 184)">
<title>dependencies</title>
<polygon fill="#0d1117" stroke="none" points="-4,4 -4,-184 233.14,-184 233.14,4 -4,4"/>
<!-- login -->
<g id="node1" class="node">
<title>login</title>
<ellipse fill="none" stroke="#c9d1d9" cx="28.6" cy="-90" rx="28.7" ry="18"/>
<text text-anchor="middle" x="28.6" y="-86.3" font-family="Times,serif" font-size="14.00" fill="#c9d1d9">login</text>
</g>
<!-- util -->
<g id="node2" class="node">
<title>util</title>
<ellipse fill="none" stroke="#c9d1d9" cx="70.6" cy="-18" rx="27" ry="18"/>
<text text-anchor="middle" x="70.6" y="-14.3" font-family="Times,serif" font-size="14.00" fill="#c9d1d9">util</text>
</g>
<!-- login&#45;&gt;util -->
<g id="edge1" class="edge">
<title>login&#45;&gt;util</title>
<path fill="none" stroke="#c9d1d9" d="M38.34,-72.76C43.37,-64.37 49.64,-53.93 55.3,-44.5"/>
<polygon fill="#c9d1d9" stroke="#c9d1d9" points="58.77,-46.52 60.91,-36.15 52.76,-42.92 58.77,-46.52"/>
</g>
<!-- contract -->
<g id="node3" class="node">
<title>contract</title>
<ellipse fill="none" stroke="#c9d1d9" cx="154.6" cy="-18" rx="38.99" ry="18"/>
<text text-anchor="middle" x="154.6" y="-14.3" font-family="Times,serif" font-size="14.00" fill="#c9d1d9">contract</text>
</g>
<!-- login&#45;&gt;contract -->
<g id="edge2" class="edge">
<title>login&#45;&gt;contract</title>
<path fill="none" stroke="#c9d1d9" d="M49.69,-77.28C69.09,-66.5 98.21,-50.33 120.85,-37.75"/>
<polygon fill="#c9d1d9" stroke="#c9d1d9" points="122.38,-40.35 129.42,-32.43 118.98,-34.23 122.38,-40.35"/>
</g>
<!-- register -->
<g id="node4" class="node">
<title>register</title>
<ellipse fill="none" stroke="#c9d1d9" cx="112.6" cy="-90" rx="37.09" ry="18"/>
<text text-anchor="middle" x="112.6" y="-86.3" font-family="Times,serif" font-size="14.00" fill="#c9d1d9">register</text>
</g>
<!-- register&#45;&gt;util -->
<g id="edge6" class="edge">
<title>register&#45;&gt;util</title>
<path fill="none" stroke="#c9d1d9" d="M102.64,-72.41C97.6,-64.01 91.37,-53.63 85.75,-44.26"/>
<polygon fill="#c9d1d9" stroke="#c9d1d9" points="88.34,-42.76 80.19,-35.99 82.33,-46.36 88.34,-42.76"/>
</g>
<!-- register&#45;&gt;contract -->
<g id="edge3" class="edge">
<title>register&#45;&gt;contract</title>
<path fill="none" stroke="#c9d1d9" d="M122.55,-72.41C127.52,-64.13 133.64,-53.92 139.2,-44.66"/>
<polygon fill="#c9d1d9" stroke="#c9d1d9" points="142.57,-46.85 144.72,-36.47 136.57,-43.24 142.57,-46.85"/>
</g>
<!-- home -->
<g id="node5" class="node">
<title>home</title>
<ellipse fill="none" stroke="#c9d1d9" cx="198.6" cy="-90" rx="30.59" ry="18"/>
<text text-anchor="middle" x="198.6" y="-86.3" font-family="Times,serif" font-size="14.00" fill="#c9d1d9">home</text>
</g>
<!-- home&#45;&gt;util -->
<g id="edge5" class="edge">
<title>home&#45;&gt;util</title>
<path fill="none" stroke="#c9d1d9" d="M176.59,-76.97C155.58,-65.47 123.75,-48.07 100.45,-35.33"/>
<polygon fill="#c9d1d9" stroke="#c9d1d9" points="102.5,-31.91 92.05,-30.18 99.14,-38.05 102.5,-31.91"/>
</g>
<!-- home&#45;&gt;contract -->
<g id="edge4" class="edge">
<title>home&#45;&gt;contract</title>
<path fill="none" stroke="#c9d1d9" d="M188.39,-72.76C183.19,-64.49 176.74,-54.23 170.88,-44.9"/>
<polygon fill="#c9d1d9" stroke="#c9d1d9" points="173.34,-43.24 165.05,-36.63 167.41,-46.96 173.34,-43.24"/>
</g>
<!-- factory -->
<g id="node6" class="node">
<title>factory</title>
<ellipse fill="none" stroke="#c9d1d9" cx="112.6" cy="-162" rx="36" ry="18"/>
<text text-anchor="middle" x="112.6" y="-158.3" font-family="Times,serif" font-size="14.00" fill="#c9d1d9">factory</text>
</g>
<!-- factory&#45;&gt;login -->
<g id="edge7" class="edge">
<title>factory&#45;&gt;login</title>
<path fill="none" stroke="#c9d1d9" d="M94.78,-146.15C82.77,-136.15 66.76,-122.8 53.5,-111.75"/>
<polygon fill="#c9d1d9" stroke="#c9d1d9" points="56.17,-108.58 46.24,-104.87 51.68,-113.96 56.17,-108.58"/>
</g>
<!-- factory&#45;&gt;register -->
<g id="edge8" class="edge">
<title>factory&#45;&gt;register</title>
<path fill="none" stroke="#c9d1d9" d="M112.6,-143.7C112.6,-136.24 112.6,-127.32 112.6,-118.97"/>
<polygon fill="#c9d1d9" stroke="#c9d1d9" points="116.1,-119.1 112.6,-109.1 109.1,-119.1 116.1,-119.1"/>
</g>
<!-- factory&#45;&gt;home -->
<g id="edge9" class="edge">
<title>factory&#45;&gt;home</title>
<path fill="none" stroke="#c9d1d9" d="M130.84,-146.15C143.05,-136.21 159.31,-122.98 172.84,-111.97"/>
<polygon fill="#c9d1d9" stroke="#c9d1d9" points="174.72,-114.13 180.27,-105.11 170.3,-108.71 174.72,-114.13"/>
</g>
</g>
</svg>
