<?xml version="1.0" encoding="UTF-8" standalone="no"?>
<!DOCTYPE svg PUBLIC "-//W3C//DTD SVG 1.1//EN"
 "http://www.w3.org/Graphics/SVG/1.1/DTD/svg11.dtd">
<!-- Generated by graphviz version 8.0.2 (20230410.1723)
 -->
<!-- Title: dependencies Pages: 1 -->
<svg width="486pt" height="188pt"
 viewBox="0.00 0.00 486.39 188.00" xmlns="http://www.w3.org/2000/svg" xmlns:xlink="http://www.w3.org/1999/xlink">
<g id="graph0" class="graph" transform="scale(1 1) rotate(0) translate(4 184)">
<title>dependencies</title>
<polygon fill="white" stroke="none" points="-4,4 -4,-184 482.39,-184 482.39,4 -4,4"/>
<!-- app.login.Login -->
<g id="node1" class="node">
<title>app.login.Login</title>
<ellipse fill="none" stroke="black" cx="252.19" cy="-90" rx="67.69" ry="18"/>
<text text-anchor="middle" x="252.19" y="-86.3" font-family="Times,serif" font-size="14.00">app.login.Login</text>
</g>
<!-- app.StringUtil -->
<g id="node2" class="node">
<title>app.StringUtil</title>
<ellipse fill="none" stroke="black" cx="106.19" cy="-18" rx="61.19" ry="18"/>
<text text-anchor="middle" x="106.19" y="-14.3" font-family="Times,serif" font-size="14.00">app.StringUtil</text>
</g>
<!-- app.login.Login&#45;&gt;app.StringUtil -->
<g id="edge1" class="edge">
<title>app.login.Login&#45;&gt;app.StringUtil</title>
<path fill="none" stroke="black" d="M220.51,-73.81C199.03,-63.51 170.44,-49.8 147.22,-38.67"/>
<polygon fill="black" stroke="black" points="148.84,-35.09 138.31,-33.92 145.81,-41.4 148.84,-35.09"/>
</g>
<!-- app.PageUtil -->
<g id="node4" class="node">
<title>app.PageUtil</title>
<ellipse fill="none" stroke="black" cx="357.19" cy="-18" rx="56.59" ry="18"/>
<text text-anchor="middle" x="357.19" y="-14.3" font-family="Times,serif" font-size="14.00">app.PageUtil</text>
</g>
<!-- app.login.Login&#45;&gt;app.PageUtil -->
<g id="edge3" class="edge">
<title>app.login.Login&#45;&gt;app.PageUtil</title>
<path fill="none" stroke="black" d="M276.55,-72.76C290.93,-63.18 309.31,-50.92 324.89,-40.53"/>
<polygon fill="black" stroke="black" points="326.31,-43.13 332.69,-34.67 322.43,-37.3 326.31,-43.13"/>
</g>
<!-- app.Page -->
<g id="node5" class="node">
<title>app.Page</title>
<ellipse fill="none" stroke="black" cx="240.19" cy="-18" rx="42.79" ry="18"/>
<text text-anchor="middle" x="240.19" y="-14.3" font-family="Times,serif" font-size="14.00">app.Page</text>
</g>
<!-- app.login.Login&#45;&gt;app.Page -->
<g id="edge4" class="edge">
<title>app.login.Login&#45;&gt;app.Page</title>
<path fill="none" stroke="black" d="M249.23,-71.7C247.93,-64.15 246.38,-55.12 244.94,-46.68"/>
<polygon fill="black" stroke="black" points="248.26,-46.37 243.12,-37.1 241.36,-47.55 248.26,-46.37"/>
</g>
<!-- app.register.Register -->
<g id="node3" class="node">
<title>app.register.Register</title>
<ellipse fill="none" stroke="black" cx="83.19" cy="-90" rx="83.39" ry="18"/>
<text text-anchor="middle" x="83.19" y="-86.3" font-family="Times,serif" font-size="14.00">app.register.Register</text>
</g>
<!-- app.register.Register&#45;&gt;app.StringUtil -->
<g id="edge2" class="edge">
<title>app.register.Register&#45;&gt;app.StringUtil</title>
<path fill="none" stroke="black" d="M88.88,-71.7C91.38,-64.07 94.39,-54.92 97.19,-46.4"/>
<polygon fill="black" stroke="black" points="100.78,-47.7 100.57,-37.1 94.13,-45.51 100.78,-47.7"/>
</g>
<!-- app.register.Register&#45;&gt;app.PageUtil -->
<g id="edge8" class="edge">
<title>app.register.Register&#45;&gt;app.PageUtil</title>
<path fill="none" stroke="black" d="M136.05,-75.71C178.32,-65.06 239.09,-49.68 292.19,-36 296.03,-35.01 300,-33.98 303.99,-32.95"/>
<polygon fill="black" stroke="black" points="304.75,-36.11 313.55,-30.2 302.99,-29.33 304.75,-36.11"/>
</g>
<!-- app.register.Register&#45;&gt;app.Page -->
<g id="edge5" class="edge">
<title>app.register.Register&#45;&gt;app.Page</title>
<path fill="none" stroke="black" d="M118.43,-73.29C143.14,-62.27 176.17,-47.55 201.59,-36.21"/>
<polygon fill="black" stroke="black" points="202.92,-39 210.63,-31.74 200.07,-32.61 202.92,-39"/>
</g>
<!-- app.home.Home -->
<g id="node6" class="node">
<title>app.home.Home</title>
<ellipse fill="none" stroke="black" cx="408.19" cy="-90" rx="70.39" ry="18"/>
<text text-anchor="middle" x="408.19" y="-86.3" font-family="Times,serif" font-size="14.00">app.home.Home</text>
</g>
<!-- app.home.Home&#45;&gt;app.PageUtil -->
<g id="edge7" class="edge">
<title>app.home.Home&#45;&gt;app.PageUtil</title>
<path fill="none" stroke="black" d="M395.85,-72.05C389.83,-63.8 382.48,-53.7 375.8,-44.54"/>
<polygon fill="black" stroke="black" points="378.14,-42.81 369.42,-36.79 372.48,-46.93 378.14,-42.81"/>
</g>
<!-- app.home.Home&#45;&gt;app.Page -->
<g id="edge6" class="edge">
<title>app.home.Home&#45;&gt;app.Page</title>
<path fill="none" stroke="black" d="M372.56,-74.15C345.37,-62.82 307.92,-47.22 279.79,-35.5"/>
<polygon fill="black" stroke="black" points="281.46,-31.99 270.88,-31.37 278.77,-38.45 281.46,-31.99"/>
</g>
<!-- app.Factory -->
<g id="node7" class="node">
<title>app.Factory</title>
<ellipse fill="none" stroke="black" cx="252.19" cy="-162" rx="52.79" ry="18"/>
<text text-anchor="middle" x="252.19" y="-158.3" font-family="Times,serif" font-size="14.00">app.Factory</text>
</g>
<!-- app.Factory&#45;&gt;app.login.Login -->
<g id="edge9" class="edge">
<title>app.Factory&#45;&gt;app.login.Login</title>
<path fill="none" stroke="black" d="M252.19,-143.7C252.19,-136.24 252.19,-127.32 252.19,-118.97"/>
<polygon fill="black" stroke="black" points="255.69,-119.1 252.19,-109.1 248.69,-119.1 255.69,-119.1"/>
</g>
<!-- app.Factory&#45;&gt;app.register.Register -->
<g id="edge10" class="edge">
<title>app.Factory&#45;&gt;app.register.Register</title>
<path fill="none" stroke="black" d="M219.61,-147.5C194.41,-137.07 159.15,-122.46 130.79,-110.71"/>
<polygon fill="black" stroke="black" points="132.26,-107.12 121.69,-106.53 129.59,-113.59 132.26,-107.12"/>
</g>
<!-- app.Factory&#45;&gt;app.home.Home -->
<g id="edge11" class="edge">
<title>app.Factory&#45;&gt;app.home.Home</title>
<path fill="none" stroke="black" d="M283.39,-147C306.62,-136.58 338.65,-122.21 364.44,-110.63"/>
<polygon fill="black" stroke="black" points="365.66,-113.47 373.35,-106.19 362.79,-107.09 365.66,-113.47"/>
</g>
</g>
</svg>
