<?xml version="1.0" encoding="UTF-8" standalone="no"?>
<!DOCTYPE svg PUBLIC "-//W3C//DTD SVG 1.1//EN"
 "http://www.w3.org/Graphics/SVG/1.1/DTD/svg11.dtd">
<!-- Generated by graphviz version 8.0.2 (20230410.1723)
 -->
<!-- Title: dependencies Pages: 1 -->
<svg width="487pt" height="188pt"
 viewBox="0.00 0.00 487.04 188.00" xmlns="http://www.w3.org/2000/svg" xmlns:xlink="http://www.w3.org/1999/xlink">
<g id="graph0" class="graph" transform="scale(1 1) rotate(0) translate(4 184)">
<title>dependencies</title>
<polygon fill="white" stroke="none" points="-4,4 -4,-184 483.04,-184 483.04,4 -4,4"/>
<!-- app.login.Login -->
<g id="node1" class="node">
<title>app.login.Login</title>
<ellipse fill="none" stroke="black" cx="252.19" cy="-90" rx="67.69" ry="18"/>
<text text-anchor="middle" x="252.19" y="-86.3" font-family="Times,serif" font-size="14.00">app.login.Login</text>
</g>
<!-- lib.util.StringUtil -->
<g id="node2" class="node">
<title>lib.util.StringUtil</title>
<ellipse fill="none" stroke="black" cx="83.19" cy="-18" rx="71.49" ry="18"/>
<text text-anchor="middle" x="83.19" y="-14.3" font-family="Times,serif" font-size="14.00">lib.util.StringUtil</text>
</g>
<!-- app.login.Login&#45;&gt;lib.util.StringUtil -->
<g id="edge1" class="edge">
<title>app.login.Login&#45;&gt;lib.util.StringUtil</title>
<path fill="none" stroke="black" d="M216.76,-74.33C191.25,-63.76 156.6,-49.4 128.98,-37.97"/>
<polygon fill="black" stroke="black" points="130.73,-34.49 120.16,-33.9 128.06,-40.96 130.73,-34.49"/>
</g>
<!-- app.util.PageUtil -->
<g id="node4" class="node">
<title>app.util.PageUtil</title>
<ellipse fill="none" stroke="black" cx="408.19" cy="-18" rx="70.69" ry="18"/>
<text text-anchor="middle" x="408.19" y="-14.3" font-family="Times,serif" font-size="14.00">app.util.PageUtil</text>
</g>
<!-- app.login.Login&#45;&gt;app.util.PageUtil -->
<g id="edge3" class="edge">
<title>app.login.Login&#45;&gt;app.util.PageUtil</title>
<path fill="none" stroke="black" d="M285.66,-73.98C308.63,-63.67 339.36,-49.88 364.3,-38.69"/>
<polygon fill="black" stroke="black" points="365.55,-41.52 373.24,-34.23 362.69,-35.13 365.55,-41.52"/>
</g>
<!-- app.contract.Page -->
<g id="node5" class="node">
<title>app.contract.Page</title>
<ellipse fill="none" stroke="black" cx="246.19" cy="-18" rx="73.39" ry="18"/>
<text text-anchor="middle" x="246.19" y="-14.3" font-family="Times,serif" font-size="14.00">app.contract.Page</text>
</g>
<!-- app.login.Login&#45;&gt;app.contract.Page -->
<g id="edge4" class="edge">
<title>app.login.Login&#45;&gt;app.contract.Page</title>
<path fill="none" stroke="black" d="M250.71,-71.7C250.07,-64.24 249.31,-55.32 248.59,-46.97"/>
<polygon fill="black" stroke="black" points="252,-46.77 247.66,-37.1 245.03,-47.37 252,-46.77"/>
</g>
<!-- app.register.Register -->
<g id="node3" class="node">
<title>app.register.Register</title>
<ellipse fill="none" stroke="black" cx="83.19" cy="-90" rx="83.39" ry="18"/>
<text text-anchor="middle" x="83.19" y="-86.3" font-family="Times,serif" font-size="14.00">app.register.Register</text>
</g>
<!-- app.register.Register&#45;&gt;lib.util.StringUtil -->
<g id="edge2" class="edge">
<title>app.register.Register&#45;&gt;lib.util.StringUtil</title>
<path fill="none" stroke="black" d="M83.19,-71.7C83.19,-64.24 83.19,-55.32 83.19,-46.97"/>
<polygon fill="black" stroke="black" points="86.69,-47.1 83.19,-37.1 79.69,-47.1 86.69,-47.1"/>
</g>
<!-- app.register.Register&#45;&gt;app.util.PageUtil -->
<g id="edge8" class="edge">
<title>app.register.Register&#45;&gt;app.util.PageUtil</title>
<path fill="none" stroke="black" d="M140.55,-76.65C197.76,-64.32 285.45,-45.44 344.72,-32.67"/>
<polygon fill="black" stroke="black" points="345.4,-35.89 354.44,-30.36 343.93,-29.05 345.4,-35.89"/>
</g>
<!-- app.register.Register&#45;&gt;app.contract.Page -->
<g id="edge5" class="edge">
<title>app.register.Register&#45;&gt;app.contract.Page</title>
<path fill="none" stroke="black" d="M119.37,-73.46C143.46,-63.12 175.31,-49.44 201.06,-38.38"/>
<polygon fill="black" stroke="black" points="202.15,-41.29 209.96,-34.13 199.39,-34.86 202.15,-41.29"/>
</g>
<!-- app.home.Home -->
<g id="node6" class="node">
<title>app.home.Home</title>
<ellipse fill="none" stroke="black" cx="408.19" cy="-90" rx="70.39" ry="18"/>
<text text-anchor="middle" x="408.19" y="-86.3" font-family="Times,serif" font-size="14.00">app.home.Home</text>
</g>
<!-- app.home.Home&#45;&gt;app.util.PageUtil -->
<g id="edge7" class="edge">
<title>app.home.Home&#45;&gt;app.util.PageUtil</title>
<path fill="none" stroke="black" d="M408.19,-71.7C408.19,-64.24 408.19,-55.32 408.19,-46.97"/>
<polygon fill="black" stroke="black" points="411.69,-47.1 408.19,-37.1 404.69,-47.1 411.69,-47.1"/>
</g>
<!-- app.home.Home&#45;&gt;app.contract.Page -->
<g id="edge6" class="edge">
<title>app.home.Home&#45;&gt;app.contract.Page</title>
<path fill="none" stroke="black" d="M373.44,-73.98C349.47,-63.63 317.38,-49.76 291.43,-38.55"/>
<polygon fill="black" stroke="black" points="293.02,-34.99 282.45,-34.23 290.24,-41.41 293.02,-34.99"/>
</g>
<!-- app.factory.Factory -->
<g id="node7" class="node">
<title>app.factory.Factory</title>
<ellipse fill="none" stroke="black" cx="252.19" cy="-162" rx="79.09" ry="18"/>
<text text-anchor="middle" x="252.19" y="-158.3" font-family="Times,serif" font-size="14.00">app.factory.Factory</text>
</g>
<!-- app.factory.Factory&#45;&gt;app.login.Login -->
<g id="edge9" class="edge">
<title>app.factory.Factory&#45;&gt;app.login.Login</title>
<path fill="none" stroke="black" d="M252.19,-143.7C252.19,-136.24 252.19,-127.32 252.19,-118.97"/>
<polygon fill="black" stroke="black" points="255.69,-119.1 252.19,-109.1 248.69,-119.1 255.69,-119.1"/>
</g>
<!-- app.factory.Factory&#45;&gt;app.register.Register -->
<g id="edge10" class="edge">
<title>app.factory.Factory&#45;&gt;app.register.Register</title>
<path fill="none" stroke="black" d="M215.1,-145.64C190.21,-135.32 157.19,-121.65 130.41,-110.56"/>
<polygon fill="black" stroke="black" points="132.06,-107.04 121.49,-106.45 129.38,-113.51 132.06,-107.04"/>
</g>
<!-- app.factory.Factory&#45;&gt;app.home.Home -->
<g id="edge11" class="edge">
<title>app.factory.Factory&#45;&gt;app.home.Home</title>
<path fill="none" stroke="black" d="M286.81,-145.46C309.77,-135.16 340.08,-121.56 364.67,-110.53"/>
<polygon fill="black" stroke="black" points="365.78,-113.42 373.47,-106.13 362.92,-107.03 365.78,-113.42"/>
</g>
</g>
</svg>
