<?xml version="1.0" encoding="UTF-8" standalone="no"?>
<!DOCTYPE svg PUBLIC "-//W3C//DTD SVG 1.1//EN"
 "http://www.w3.org/Graphics/SVG/1.1/DTD/svg11.dtd">
<!-- Generated by graphviz version 8.0.2 (20230410.1723)
 -->
<!-- Title: dependencies Pages: 1 -->
<svg width="129pt" height="116pt"
 viewBox="0.00 0.00 128.89 116.00" xmlns="http://www.w3.org/2000/svg" xmlns:xlink="http://www.w3.org/1999/xlink">
<g id="graph0" class="graph" transform="scale(1 1) rotate(0) translate(4 112)">
<title>dependencies</title>
<polygon fill="#0d1117" stroke="none" points="-4,4 -4,-112 124.89,-112 124.89,4 -4,4"/>
<!-- HexFormatter -->
<g id="node1" class="node">
<title>HexFormatter</title>
<ellipse fill="none" stroke="#c9d1d9" cx="60.44" cy="-90" rx="60.39" ry="18"/>
<text text-anchor="middle" x="60.44" y="-86.3" font-family="Times,serif" font-size="14.00" fill="#c9d1d9">HexFormatter</text>
</g>
<!-- StringUtil -->
<g id="node2" class="node">
<title>StringUtil</title>
<ellipse fill="none" stroke="#c9d1d9" cx="60.44" cy="-18" rx="46.29" ry="18"/>
<text text-anchor="middle" x="60.44" y="-14.3" font-family="Times,serif" font-size="14.00" fill="#c9d1d9">StringUtil</text>
</g>
<!-- HexFormatter&#45;&gt;StringUtil -->
<g id="edge1" class="edge">
<title>HexFormatter&#45;&gt;StringUtil</title>
<path fill="none" stroke="#c9d1d9" d="M54.53,-71.7C53.76,-64.24 53.52,-55.32 53.82,-46.97"/>
<polygon fill="#c9d1d9" stroke="#c9d1d9" points="57.37,-47.32 54.55,-37.1 50.38,-46.85 57.37,-47.32"/>
</g>
<!-- StringUtil&#45;&gt;HexFormatter -->
<g id="edge2" class="edge">
<title>StringUtil&#45;&gt;HexFormatter</title>
<path fill="none" stroke="#c9d1d9" d="M66.34,-36.1C67.12,-43.54 67.37,-52.44 67.08,-60.81"/>
<polygon fill="#c9d1d9" stroke="#c9d1d9" points="63.53,-60.49 66.36,-70.7 70.51,-60.95 63.53,-60.49"/>
</g>
</g>
</svg>
