<?xml version="1.0" encoding="UTF-8" standalone="no"?>
<!DOCTYPE svg PUBLIC "-//W3C//DTD SVG 1.1//EN"
        "http://www.w3.org/Graphics/SVG/1.1/DTD/svg11.dtd">
<!-- Generated by graphviz version 8.0.2 (20230410.1723)
 -->
<!-- Title: dependencies Pages: 1 -->
<svg width="122pt" height="116pt"
     viewBox="0.00 0.00 122.39 116.00" xmlns="http://www.w3.org/2000/svg">
    <g id="graph0" class="graph" transform="scale(1 1) rotate(0) translate(4 112)">
        <title>dependencies</title>
        <polygon fill="#0d1117" stroke="none" points="-4,4 -4,-112 118.39,-112 118.39,4 -4,4"/>
        <!-- login -->
        <g id="node1" class="node">
            <title>login</title>
            <ellipse fill="none" stroke="#c9d1d9" cx="57.19" cy="-90" rx="28.7" ry="18"/>
            <text text-anchor="middle" x="57.19" y="-86.3" font-family="Times,serif" font-size="14.00" fill="#c9d1d9">
                login
            </text>
        </g>
        <!-- authorization -->
        <g id="node2" class="node">
            <title>authorization</title>
            <ellipse fill="none" stroke="#c9d1d9" cx="57.19" cy="-18" rx="57.39" ry="18"/>
            <text text-anchor="middle" x="57.19" y="-14.3" font-family="Times,serif" font-size="14.00" fill="#c9d1d9">
                authorization
            </text>
        </g>
        <!-- login&#45;&gt;authorization -->
        <g id="edge1" class="edge">
            <title>login&#45;&gt;authorization</title>
            <path fill="none" stroke="#c9d1d9" d="M51.32,-72.05C50.53,-64.6 50.27,-55.64 50.56,-47.22"/>
            <polygon fill="#c9d1d9" stroke="#c9d1d9" points="54.12,-47.48 51.28,-37.28 47.13,-47.02 54.12,-47.48"/>
        </g>
        <!-- authorization&#45;&gt;login -->
        <g id="edge2" class="edge">
            <title>authorization&#45;&gt;login</title>
            <path fill="none" stroke="#c9d1d9" d="M63.11,-36.28C63.88,-43.77 64.12,-52.75 63.82,-61.15"/>
            <polygon fill="#c9d1d9" stroke="#c9d1d9" points="60.26,-60.84 63.07,-71.05 67.25,-61.32 60.26,-60.84"/>
        </g>
    </g>
</svg>
