<?xml version="1.0" encoding="UTF-8" standalone="no"?>
<!DOCTYPE svg PUBLIC "-//W3C//DTD SVG 1.1//EN"
 "http://www.w3.org/Graphics/SVG/1.1/DTD/svg11.dtd">
<!-- Generated by graphviz version 8.0.2 (20230410.1723)
 -->
<!-- Title: dependencies Pages: 1 -->
<svg width="248pt" height="188pt"
 viewBox="0.00 0.00 248.48 188.00" xmlns="http://www.w3.org/2000/svg" xmlns:xlink="http://www.w3.org/1999/xlink">
<g id="graph0" class="graph" transform="scale(1 1) rotate(0) translate(4 184)">
<title>dependencies</title>
<polygon fill="#0d1117" stroke="none" points="-4,4 -4,-184 244.48,-184 244.48,4 -4,4"/>
<!-- login.LoginService -->
<g id="node1" class="node">
<title>login.LoginService</title>
<ellipse fill="none" stroke="#c9d1d9" cx="120.24" cy="-162" rx="78.79" ry="18"/>
<text text-anchor="middle" x="120.24" y="-158.3" font-family="Times,serif" font-size="14.00" fill="#c9d1d9">login.LoginService</text>
</g>
<!-- authorization.PasswordVerifier -->
<g id="node2" class="node">
<title>authorization.PasswordVerifier</title>
<ellipse fill="none" stroke="#c9d1d9" cx="120.24" cy="-90" rx="120.48" ry="18"/>
<text text-anchor="middle" x="120.24" y="-86.3" font-family="Times,serif" font-size="14.00" fill="#c9d1d9">authorization.PasswordVerifier</text>
</g>
<!-- login.LoginService&#45;&gt;authorization.PasswordVerifier -->
<g id="edge1" class="edge">
<title>login.LoginService&#45;&gt;authorization.PasswordVerifier</title>
<path fill="none" stroke="#c9d1d9" d="M120.24,-143.7C120.24,-136.24 120.24,-127.32 120.24,-118.97"/>
<polygon fill="#c9d1d9" stroke="#c9d1d9" points="123.74,-119.1 120.24,-109.1 116.74,-119.1 123.74,-119.1"/>
</g>
<!-- login.OneWayHash -->
<g id="node3" class="node">
<title>login.OneWayHash</title>
<ellipse fill="none" stroke="#c9d1d9" cx="120.24" cy="-18" rx="79.89" ry="18"/>
<text text-anchor="middle" x="120.24" y="-14.3" font-family="Times,serif" font-size="14.00" fill="#c9d1d9">login.OneWayHash</text>
</g>
<!-- authorization.PasswordVerifier&#45;&gt;login.OneWayHash -->
<g id="edge2" class="edge">
<title>authorization.PasswordVerifier&#45;&gt;login.OneWayHash</title>
<path fill="none" stroke="#c9d1d9" d="M120.24,-71.7C120.24,-64.24 120.24,-55.32 120.24,-46.97"/>
<polygon fill="#c9d1d9" stroke="#c9d1d9" points="123.74,-47.1 120.24,-37.1 116.74,-47.1 123.74,-47.1"/>
</g>
</g>
</svg>
